Coordinates
version=1
nRows=20
nColumns=38
inDegrees=no

Units are S.I. units (second, meters, Newtons, ...)
If the header above contains a line with 'inDegrees', this indicates whether rotational values are in degrees (yes) or radians (no).

endheader
time	pelvis_tilt	pelvis_list	pelvis_rotation	pelvis_tx	pelvis_ty	pelvis_tz	hip_flexion_r	hip_adduction_r	hip_rotation_r	knee_angle_r	ankle_angle_r	subtalar_angle_r	mtp_angle_r	hip_flexion_l	hip_adduction_l	hip_rotation_l	knee_angle_l	ankle_angle_l	subtalar_angle_l	mtp_angle_l	lumbar_extension	lumbar_bending	lumbar_rotation	arm_flex_r	arm_add_r	arm_rot_r	elbow_flex_r	pro_sup_r	wrist_flex_r	wrist_dev_r	arm_flex_l	arm_add_l	arm_rot_l	elbow_flex_l	pro_sup_l	wrist_flex_l	wrist_dev_l
1.1	1.85672	1.4294	-0.158164	0.714357	0.953989	0.951795	0.137935	0.137788	-0.354886	0.270276	0.0611245	0	0	0.339451	-0.178242	0.0983508	1.37736	0.00433291	0	0	-0.0351336	0.191351	-0.138875	-0.137131	-0.199856	0.0976213	0.472906	1.0199	0	0	-0.157199	-0.211013	0.35933	0.732246	0.885267	0	0
1.11	1.88051	1.43368	-0.192646	0.715595	0.963041	0.953261	0.116736	0.138604	-0.341075	0.2558	0.061368	0	0	0.355428	-0.171263	0.0926604	1.37143	0.00833644	0	0	-0.0420854	0.187082	-0.126146	-0.130161	-0.201921	0.103874	0.473712	1.01769	0	0	-0.166548	-0.211661	0.351217	0.742901	0.898698	0	0
1.12	1.91565	1.43761	-0.237017	0.716669	0.972028	0.954702	0.094265	0.138766	-0.327703	0.241358	0.0619465	0	0	0.369427	-0.163807	0.0882785	1.36219	0.0145546	0	0	-0.050352	0.182705	-0.114588	-0.122721	-0.20335	0.108603	0.473912	1.01657	0	0	-0.174779	-0.212041	0.343676	0.751747	0.913476	0	0
1.13	1.95978	1.44115	-0.289154	0.717569	0.980929	0.956054	0.0715099	0.138117	-0.315235	0.228088	0.0630156	0	0	0.381835	-0.155867	0.085097	1.3498	0.0230026	0	0	-0.0594768	0.17813	-0.104299	-0.114409	-0.204535	0.112494	0.473127	1.01941	0	0	-0.181923	-0.212042	0.336785	0.759455	0.926829	0	0
1.14	2.0076	1.44445	-0.344239	0.718366	0.989771	0.95725	0.0492303	0.136893	-0.303232	0.215751	0.0641432	0	0	0.3934	-0.147645	0.082258	1.33441	0.0331916	0	0	-0.0685213	0.173281	-0.0948211	-0.10559	-0.206079	0.119346	0.471669	1.02117	0	0	-0.188543	-0.211836	0.33037	0.765973	0.939604	0	0
1.15	2.07745	1.44905	-0.418709	0.720242	0.998474	0.958373	0.0269005	0.136467	-0.286224	0.205574	0.0630818	0	0	0.405926	-0.151195	0.0824181	1.31501	0.0521934	0	0	-0.0790239	0.163767	-0.0864988	-0.0972651	-0.205788	0.127876	0.470562	1.02031	0	0	-0.194149	-0.213388	0.324441	0.770722	0.952054	0	0
1.16	2.14105	1.4512	-0.488424	0.72083	1.00725	0.959407	0.00449665	0.134174	-0.273523	0.19536	0.0649573	0	0	0.413852	-0.143108	0.0795428	1.29349	0.0629263	0	0	-0.0891262	0.15846	-0.0781898	-0.0879946	-0.207274	0.13712	0.468992	1.01716	0	0	-0.199793	-0.212746	0.318798	0.775699	0.960873	0	0
1.17	2.19422	1.45329	-0.546639	0.721328	1.01598	0.960156	-0.0146465	0.131433	-0.263617	0.188186	0.0681681	0	0	0.422933	-0.135245	0.0777602	1.2695	0.0723173	0	0	-0.0972682	0.153646	-0.0704272	-0.0794388	-0.2083	0.142152	0.467772	1.01813	0	0	-0.204293	-0.21202	0.315968	0.779048	0.963596	0	0
1.18	2.24227	1.45519	-0.599221	0.721693	1.02458	0.960732	-0.0326136	0.128789	-0.253746	0.181134	0.0711685	0	0	0.432169	-0.128554	0.0750443	1.2428	0.0807532	0	0	-0.104633	0.149217	-0.0635554	-0.0701618	-0.209595	0.148286	0.465856	1.02151	0	0	-0.208316	-0.210726	0.313329	0.779934	0.966558	0	0
1.19	2.28218	1.457	-0.643422	0.721662	1.03328	0.961057	-0.0484457	0.126234	-0.245042	0.175599	0.0745801	0	0	0.441689	-0.12334	0.0711371	1.21366	0.088486	0	0	-0.11071	0.145519	-0.0571449	-0.0606946	-0.21101	0.154738	0.463463	1.02444	0	0	-0.212092	-0.208431	0.310465	0.779382	0.968548	0	0
1.2	2.32071	1.45803	-0.685817	0.722331	1.04177	0.961352	-0.0644296	0.124148	-0.235607	0.170232	0.0777474	0	0	0.449508	-0.12007	0.0654228	1.18181	0.0979089	0	0	-0.116933	0.141918	-0.051264	-0.0513637	-0.211908	0.161901	0.461214	1.02631	0	0	-0.215359	-0.206271	0.30773	0.778488	0.968437	0	0
1.21	2.34978	1.45928	-0.718324	0.722534	1.05037	0.961388	-0.0786056	0.122216	-0.228033	0.165938	0.0817613	0	0	0.457692	-0.117766	0.0588492	1.14805	0.107047	0	0	-0.121628	0.139093	-0.0461703	-0.0421558	-0.212985	0.167579	0.459205	1.02923	0	0	-0.218333	-0.20379	0.306589	0.775421	0.966641	0	0
1.22	2.37399	1.46059	-0.744608	0.722557	1.05899	0.96125	-0.0925704	0.12068	-0.221278	0.161033	0.0859802	0	0	0.46563	-0.115864	0.0518245	1.11236	0.115966	0	0	-0.125355	0.13662	-0.0426019	-0.0331697	-0.213488	0.171752	0.457089	1.03231	0	0	-0.220903	-0.201124	0.306252	0.770878	0.962824	0	0
1.23	2.39578	1.46188	-0.7674	0.722453	1.06768	0.960957	-0.106487	0.119351	-0.215689	0.155807	0.09042	0	0	0.472929	-0.114129	0.0443947	1.07502	0.124356	0	0	-0.128488	0.134335	-0.0401617	-0.0242591	-0.213949	0.176741	0.454687	1.03454	0	0	-0.223034	-0.198588	0.307235	0.765505	0.95603	0	0
1.24	2.42022	1.46293	-0.792774	0.722315	1.07645	0.960567	-0.121248	0.11796	-0.210037	0.149615	0.09477	0	0	0.478622	-0.112728	0.0354086	1.03602	0.131654	0	0	-0.13186	0.131846	-0.0380635	-0.0153351	-0.214136	0.180779	0.452234	1.03835	0	0	-0.225029	-0.196397	0.309213	0.759707	0.945927	0	0
1.25	2.4526	1.46353	-0.827124	0.72216	1.08523	0.960173	-0.137671	0.116212	-0.203136	0.14231	0.0988363	0	0	0.481898	-0.112107	0.0231029	0.995388	0.1377	0	0	-0.136357	0.128752	-0.0353867	-0.00613385	-0.213758	0.183757	0.449665	1.04322	0	0	-0.226827	-0.194498	0.313048	0.752793	0.934374	0	0
1.26	2.48993	1.46352	-0.867009	0.722005	1.09415	0.959781	-0.15571	0.114269	-0.194928	0.133698	0.102382	0	0	0.482706	-0.112174	0.00785769	0.952418	0.142459	0	0	-0.141616	0.125513	-0.0318514	0.00268321	-0.212667	0.183078	0.447092	1.05071	0	0	-0.227553	-0.193797	0.324386	0.745274	0.914187	0	0
1.27	2.50503	1.4631	-0.889692	0.720925	1.10313	0.959179	-0.172621	0.110631	-0.190389	0.124386	0.107978	0	0	0.481631	-0.100799	-0.00404222	0.909054	0.137724	0	0	-0.145771	0.125826	-0.0267602	0.0127205	-0.213447	0.185084	0.445264	1.05274	0	0	-0.229931	-0.190272	0.332607	0.737884	0.899141	0	0
1.28	2.56636	1.46407	-0.951986	0.720604	1.1119	0.95887	-0.190964	0.105112	-0.186206	0.116286	0.112402	0	0	0.476072	-0.0955964	-0.0163475	0.855843	0.139828	0	0	-0.152115	0.119063	-0.0257957	0.0225828	-0.211117	0.185102	0.442013	1.05786	0	0	-0.229736	-0.189322	0.339962	0.729166	0.885641	0	0
1.29	2.59831	1.4627	-0.986452	0.720427	1.12118	0.958235	-0.210812	0.10372	-0.179302	0.106195	0.115354	0	0	0.474319	-0.100196	-0.0403754	0.810989	0.143231	0	0	-0.157216	0.116244	-0.0234832	0.0304852	-0.209534	0.183162	0.440675	1.06708	0	0	-0.231089	-0.188588	0.349646	0.72008	0.875173	0	0
